<?xml version="1.0" standalone="no"?>
<svg viewBox="0 0 200 200" xmlns="http://www.w3.org/2000/svg">
  <path fill="#EF4444" d="M37.5,-61.1C50.2,-57.7,63.1,-50.8,68.7,-40C74.3,-29.2,72.6,-14.6,70.1,-1.5C67.5,11.7,64.1,23.3,58.3,33.8C52.5,44.3,44.5,53.7,34.4,62.9C24.2,72.2,12.1,81.3,-1.1,83.3C-14.4,85.2,-28.8,80,-38.8,70.7C-48.7,61.4,-54.3,48,-57.9,35.5C-61.6,23,-63.3,11.5,-63.3,0C-63.2,-11.4,-61.3,-22.8,-55.7,-31.9C-50.1,-41,-40.8,-47.8,-30.9,-52.8C-21,-57.8,-10.5,-61.1,1,-62.8C12.4,-64.5,24.9,-64.5,37.5,-61.1Z" transform="translate(100 100)" />
</svg>
